<group>
//ampeg_sustain=.01
//ampeg_decay=15
ampeg_release=.4
pan=-100
<region>
sample=1_C.wav pitch_keycenter=c1 lokey=c1 hikey=c1
<region>
sample=1_D.wav pitch_keycenter=d1 lokey=c#1 hikey=d1
<region>
sample=1_E.wav pitch_keycenter=e1 lokey=d#1 hikey=e1
<region>
sample=1_Gb.wav pitch_keycenter=f#1 lokey=f1 hikey=f#1
<region>
sample=1_Ab.wav pitch_keycenter=g#1 lokey=g1 hikey=g#1
<region>
sample=1_Bb.wav pitch_keycenter=a#1 lokey=a1 hikey=a#1
<region>
sample=2_C.wav pitch_keycenter=c2 lokey=b1 hikey=c2
<region>
sample=2_D.wav pitch_keycenter=d2 lokey=c#2 hikey=d2
<region>
sample=2_E.wav pitch_keycenter=e2 lokey=d#2 hikey=e2
<region>
sample=2_Gb.wav pitch_keycenter=f#2 lokey=f1 hikey=f#2
<region>
sample=2_Ab.wav pitch_keycenter=g#2 lokey=g2 hikey=g#2
<region>
sample=2_Bb.wav pitch_keycenter=a#2 lokey=a2 hikey=a#2
<region>
sample=3_C.wav pitch_keycenter=c3 lokey=b2 hikey=c3
<region>
sample=3_D.wav pitch_keycenter=d3 lokey=c#3 hikey=d3
<region>
sample=3_E.wav pitch_keycenter=e3 lokey=d#3 hikey=e3
<region>
sample=3_Gb.wav pitch_keycenter=f#3 lokey=f3 hikey=f#3
<region>
sample=3_Ab.wav pitch_keycenter=g#3 lokey=g3 hikey=g#3
<region>
sample=3_Bb.wav pitch_keycenter=a#3 lokey=a3 hikey=a#3
<region>
sample=4_C.wav pitch_keycenter=c4 lokey=b3 hikey=c4
<region>
sample=4_D.wav pitch_keycenter=d4 lokey=c#4 hikey=d4
<region>
sample=4_E.wav pitch_keycenter=e4 lokey=d#4 hikey=e3
<region>
sample=3_Gb.wav pitch_keycenter=f#3 lokey=f3

<group>
//ampeg_sustain=.01
//ampeg_decay=15
ampeg_release=.4
pan=100
<region>
sample=1_Db.wav pitch_keycenter=c1 lokey=c1 hikey=c#1
<region>
sample=1_Eb.wav pitch_keycenter=d#1 lokey=d1 hikey=d#1
<region>
sample=1_F.wav pitch_keycenter=f1 lokey=e1 hikey=f1
<region>
sample=1_G.wav pitch_keycenter=g1 lokey=f#1 hikey=g1
<region>
sample=1_A.wav pitch_keycenter=a1 lokey=g#1 hikey=a1
<region>
sample=1_B.wav pitch_keycenter=b1 lokey=a#1 hikey=b1
<region>
sample=2_Db.wav pitch_keycenter=c#2 lokey=c2 hikey=c#2
<region>
sample=2_Eb.wav pitch_keycenter=d#2 lokey=d2 hikey=d#2
<region>
sample=2_F.wav pitch_keycenter=f2 lokey=e2 hikey=f2
<region>
sample=2_G.wav pitch_keycenter=g2 lokey=f#2 hikey=g2
<region>
sample=2_A.wav pitch_keycenter=a2 lokey=g#2 hikey=a2
<region>
sample=2_B.wav pitch_keycenter=b2 lokey=a#2 hikey=b2
<region>
sample=3_Db.wav pitch_keycenter=c#3 lokey=c3 hikey=c#3
<region>
sample=3_Eb.wav pitch_keycenter=d#3 lokey=d3 hikey=d#3
<region>
sample=3_F.wav pitch_keycenter=f3 lokey=e3 hikey=f3
<region>
sample=3_G.wav pitch_keycenter=g3 lokey=f#3 hikey=g3
<region>
sample=3_A.wav pitch_keycenter=a3 lokey=g#3 hikey=a3
<region>
sample=3_B.wav pitch_keycenter=b3 lokey=a#3 hikey=b3
<region>
sample=4_Db.wav pitch_keycenter=c#4 lokey=c4 hikey=c#4
<region>
sample=4_Eb.wav pitch_keycenter=d#4 lokey=d4 hikey=d#4
<region>
sample=3_F.wav pitch_keycenter=f3 lokey=e4 hikey=f4
<region>
sample=3_G.wav lokey=g3 pitch_keycenter=g3
